<mxfile host="app.diagrams.net" modified="2024-01-15T05:39:11.942Z" agent="Mozilla/5.0 (Windows NT 10.0; Win64; x64) AppleWebKit/537.36 (KHTML, like Gecko) Chrome/120.0.0.0 Safari/537.36" etag="3JYkVKesDRXTzyQe2WiZ" version="22.1.18" type="device">
  <diagram name="Page-1" id="wRrxiaBwY16lsymwqQ7z">
    <mxGraphModel dx="1122" dy="706" grid="1" gridSize="10" guides="1" tooltips="1" connect="1" arrows="1" fold="1" page="1" pageScale="1" pageWidth="850" pageHeight="1100" math="0" shadow="0">
      <root>
        <mxCell id="0" />
        <mxCell id="1" parent="0" />
        <mxCell id="QwhFlpIk_n6bEOXGcg0U-1" value="&lt;font style=&quot;font-size: 18px;&quot;&gt;gfwegfwefwef&lt;/font&gt;" style="rounded=1;whiteSpace=wrap;html=1;" vertex="1" parent="1">
          <mxGeometry x="160" y="180" width="120" height="60" as="geometry" />
        </mxCell>
      </root>
    </mxGraphModel>
  </diagram>
</mxfile>
